<?xml version="1.0" standalone="no"?><!DOCTYPE svg PUBLIC "-//W3C//DTD SVG 1.1//EN" "http://www.w3.org/Graphics/SVG/1.1/DTD/svg11.dtd"><svg t="1648450315868" class="icon" viewBox="0 0 1126 1024" version="1.1" xmlns="http://www.w3.org/2000/svg" p-id="7465" xmlns:xlink="http://www.w3.org/1999/xlink" width="219.921875" height="200"><defs><style type="text/css">@font-face { font-family: feedback-iconfont; src: url("//at.alicdn.com/t/font_1031158_u69w8yhxdu.woff2?t=1630033759944") format("woff2"), url("//at.alicdn.com/t/font_1031158_u69w8yhxdu.woff?t=1630033759944") format("woff"), url("//at.alicdn.com/t/font_1031158_u69w8yhxdu.ttf?t=1630033759944") format("truetype"); }
</style></defs><path d="M972.235 0.563V0H407.646a260.229 260.229 0 0 0-253.521 266.526l-0.512 552.609H741.24a25.598 25.598 0 1 1 0 51.194H0.026a150.823 150.823 0 0 0 153.076 153.588h566.072a246.918 246.918 0 0 0 253.061-255.98v-614.35h154.1A155.943 155.943 0 0 0 972.235 0.564zM305 460.763h-51.195v-51.196h51.195v51.196z m0-153.588h-51.195V255.98h51.195v51.195z m461.94 153.588h-410.59v-51.196h410.59v51.196z m0-153.588h-410.59V255.98h410.59v51.195z" fill="#FB822F" p-id="7466"></path></svg>