<?xml version="1.0" standalone="no"?><!DOCTYPE svg PUBLIC "-//W3C//DTD SVG 1.1//EN" "http://www.w3.org/Graphics/SVG/1.1/DTD/svg11.dtd"><svg t="1648099996303" class="icon" viewBox="0 0 1024 1024" version="1.1" xmlns="http://www.w3.org/2000/svg" p-id="3007" xmlns:xlink="http://www.w3.org/1999/xlink" width="200" height="200"><defs><style type="text/css">@font-face { font-family: feedback-iconfont; src: url("//at.alicdn.com/t/font_1031158_u69w8yhxdu.woff2?t=1630033759944") format("woff2"), url("//at.alicdn.com/t/font_1031158_u69w8yhxdu.woff?t=1630033759944") format("woff"), url("//at.alicdn.com/t/font_1031158_u69w8yhxdu.ttf?t=1630033759944") format("truetype"); }
</style></defs><path d="M859.995 460.963c-1.197 10.478-1.197 21.854 0 33.527v88.305c0 160.751-110.161 296.657-258.34 336.17v-52.982c0-49.693-40.112-89.805-89.505-89.805h-0.3c-49.394 0-89.805 40.112-89.805 89.805v52.982c-148.179-39.812-258.04-175.719-258.04-336.17V431.328c39.814 32.33 93.098 91.302 89.805 172.726 33.227-153.267 99.085-176.318 154.764-239.48 72.444-82.321 93.996-172.726 52.386-259.538C641.17 167.6 687.868 409.476 672.901 536.7c64.959-115.251 146.682-146.083 187.094-154.166v78.429z" fill="#FF7B15" p-id="3008"></path></svg>