<?xml version="1.0" standalone="no"?><!DOCTYPE svg PUBLIC "-//W3C//DTD SVG 1.1//EN" "http://www.w3.org/Graphics/SVG/1.1/DTD/svg11.dtd"><svg t="1648450292226" class="icon" viewBox="0 0 1024 1024" version="1.1" xmlns="http://www.w3.org/2000/svg" p-id="6532" xmlns:xlink="http://www.w3.org/1999/xlink" width="200" height="200"><defs><style type="text/css">@font-face { font-family: feedback-iconfont; src: url("//at.alicdn.com/t/font_1031158_u69w8yhxdu.woff2?t=1630033759944") format("woff2"), url("//at.alicdn.com/t/font_1031158_u69w8yhxdu.woff?t=1630033759944") format("woff"), url("//at.alicdn.com/t/font_1031158_u69w8yhxdu.ttf?t=1630033759944") format("truetype"); }
</style></defs><path d="M400.7 12.8h224C588.6 4.7 551.1 0.4 512.6 0.4c-38.4 0.1-75.9 4.4-111.9 12.4z" fill="#00D995" p-id="6533"></path><path d="M342.4 29.5l340.7 0.2c-19-6.7-38.4-12.3-58.4-16.8h-224c-19.9 4.3-39.4 9.9-58.3 16.6z" fill="#01D996" p-id="6534"></path><path d="M300.9 46.2l423.6 0.1c-13.5-6.1-27.4-11.7-41.4-16.8l-340.7-0.1c-14.1 5.1-28 10.7-41.5 16.8z" fill="#01D997" p-id="6535"></path><path d="M267.4 63l490.4 0.1c-10.9-5.9-22-11.5-33.5-16.8l-423.6-0.1C289.5 51.5 278.4 57 267.4 63z" fill="#01D898" p-id="6536"></path><path d="M239.1 79.7l547.2 0.1C777 74 767.6 68.4 758 63l-490.4-0.1c-9.8 5.4-19.2 11-28.5 16.8z" fill="#01D899" p-id="6537"></path><path d="M214.3 96.5l596.8 0.1c-8.1-5.8-16.3-11.4-24.8-16.8l-547.2-0.1c-8.4 5.4-16.7 11-24.8 16.8z" fill="#01D89A" p-id="6538"></path><path d="M192.3 113.2l640.7 0.1c-7.2-5.8-14.5-11.3-22-16.8l-596.8-0.1c-7.3 5.4-14.7 11-21.9 16.8z" fill="#01D79B" p-id="6539"></path><path d="M172.5 129.9l680.3 0.1c-6.4-5.7-13-11.3-19.8-16.8l-640.7-0.1c-6.6 5.5-13.3 11-19.8 16.8z" fill="#01D79C" p-id="6540"></path><path d="M154.7 146.6l716.1 0.1c-5.8-5.7-11.8-11.3-17.9-16.8l-680.3-0.1c-6.1 5.5-12.1 11.1-17.9 16.8z" fill="#02D79D" p-id="6541"></path><path d="M138.4 163.4l748.7 0.1c-5.4-5.7-10.7-11.3-16.3-16.8l-716.2-0.1c-5.5 5.5-11 11.1-16.2 16.8z" fill="#02D79E" p-id="6542"></path><path d="M123.4 180.1l778.5 0.1c-4.8-5.7-9.8-11.3-14.8-16.8H138.4c-5.2 5.5-10.1 11-15 16.7z" fill="#02D69F" p-id="6543"></path><path d="M109.7 196.9l805.9 0.1c-4.5-5.7-9-11.3-13.7-16.8l-778.5-0.1c-4.7 5.5-9.2 11.1-13.7 16.8z" fill="#02D6A0" p-id="6544"></path><path d="M97.1 213.5l831 0.1c-4.1-5.7-8.2-11.3-12.6-16.8l-805.9-0.1c-4.1 5.7-8.4 11.3-12.5 16.8z" fill="#02D6A1" p-id="6545"></path><path d="M85.6 230.3l854.1 0.1c-3.8-5.7-7.7-11.2-11.5-16.8l-831-0.1c-3.9 5.5-7.8 11.1-11.6 16.8z" fill="#02D5A2" p-id="6546"></path><path d="M75 247l875.3 0.2c-3.4-5.7-7-11.2-10.6-16.8l-854.1-0.1c-3.7 5.5-7.2 11.1-10.6 16.7z" fill="#02D5A3" p-id="6547"></path><path d="M65.3 263.8l894.8 0.2c-3.2-5.6-6.4-11.2-9.7-16.8L75.1 247c-3.4 5.6-6.6 11.1-9.8 16.8z" fill="#02D5A4" p-id="6548"></path><path d="M56.4 280.5l912.6 0.2c-2.9-5.6-5.8-11.2-8.9-16.8l-894.8-0.2c-3.1 5.6-6.1 11.2-8.9 16.8z" fill="#03D4A5" p-id="6549"></path><path d="M48.3 297.3l928.8 0.2c-2.6-5.6-5.4-11.2-8.1-16.8l-912.6-0.2c-2.8 5.6-5.5 11.2-8.1 16.8z" fill="#03D4A6" p-id="6550"></path><path d="M40.8 313.9l943.6 0.2c-2.4-5.6-4.8-11.2-7.4-16.8l-928.8-0.2c-2.5 5.7-5 11.2-7.4 16.8z" fill="#03D4A7" p-id="6551"></path><path d="M34.2 330.7l957 0.2c-2.2-5.6-4.3-11.2-6.6-16.8L41 313.9c-2.5 5.6-4.7 11.2-6.8 16.8z" fill="#03D4A8" p-id="6552"></path><path d="M28.1 347.5l969 0.2c-1.9-5.6-3.9-11.2-6.1-16.8l-957-0.2c-2 5.5-3.9 11.1-5.9 16.8z" fill="#03D3A9" p-id="6553"></path><path d="M22.8 364.2l979.7 0.2c-1.7-5.6-3.4-11.2-5.4-16.8l-969-0.2c-1.8 5.6-3.6 11.2-5.3 16.8z" fill="#03D3AA" p-id="6554"></path><path d="M18.1 381l989.1 0.2c-1.5-5.6-3.1-11.2-4.7-16.8l-979.7-0.2c-1.6 5.6-3.2 11.1-4.7 16.8z" fill="#03D3AB" p-id="6555"></path><path d="M14 397.7l997.3 0.2c-1.3-5.6-2.6-11.2-4.1-16.8l-989.1-0.2c-1.5 5.6-2.9 11.2-4.1 16.8z" fill="#04D2AC" p-id="6556"></path><path d="M10.4 414.5l1004.4 0.2c-1.1-5.6-2.3-11.2-3.5-16.8L14 397.7c-1.3 5.6-2.5 11.2-3.6 16.8z" fill="#04D2AD" p-id="6557"></path><path d="M7.5 431.1l1010.3 0.2c-0.9-5.6-1.8-11.2-3-16.8l-1004.4-0.2c-1.1 5.6-2 11.2-2.9 16.8z" fill="#04D2AE" p-id="6558"></path><path d="M5.1 447.9l1015 0.2c-0.7-5.6-1.5-11.2-2.4-16.8L7.4 431.1c-0.8 5.6-1.6 11.2-2.3 16.8z" fill="#04D1AF" p-id="6559"></path><path d="M3.3 464.6l1018.7 0.2c-0.6-5.6-1.1-11.2-1.8-16.8L5.1 447.8c-0.7 5.6-1.3 11.2-1.8 16.8z" fill="#04D1B0" p-id="6560"></path><path d="M2 481.4l1021.2 0.2c-0.3-5.6-0.8-11.2-1.3-16.7L3.3 464.6c-0.5 5.6-1 11.2-1.3 16.8z" fill="#04D1B1" p-id="6561"></path><path d="M1.3 498.1l1022.6 0.2c-0.1-5.6-0.3-11.2-0.7-16.7L2 481.4c-0.3 5.6-0.6 11.1-0.7 16.7z" fill="#04D1B2" p-id="6562"></path><path d="M1.3 498.1c-0.1 4.5-0.2 9.2-0.2 13.9v2.9l1022.9 0.2V512c0-4.6-0.1-9.1-0.2-13.7" fill="#05D0B3" p-id="6563"></path><path d="M1.5 531.6l1022.2 0.2c0.2-5.6 0.3-11.2 0.3-16.8L1.2 514.8c0 5.6 0.1 11.2 0.3 16.8z" fill="#05D0B4" p-id="6564"></path><path d="M2.5 548.3l1020.4 0.2c0.3-5.6 0.7-11.2 0.9-16.8L1.5 531.5c0.2 5.7 0.5 11.2 1 16.8z" fill="#05D0B5" p-id="6565"></path><path d="M3.8 565.1l1017.5 0.2c0.6-5.6 1-11.2 1.5-16.8L2.5 548.3c0.3 5.6 0.8 11.2 1.3 16.8z" fill="#05CFB6" p-id="6566"></path><path d="M5.9 581.8l1013.5 0.2c0.8-5.6 1.4-11.2 2.1-16.8L3.9 565c0.5 5.7 1.2 11.3 2 16.8z" fill="#05CFB7" p-id="6567"></path><path d="M8.4 598.6l1008.4 0.2c0.9-5.6 1.8-11.1 2.6-16.8L5.9 581.8c0.7 5.6 1.6 11.2 2.5 16.8z" fill="#05CFB8" p-id="6568"></path><path d="M11.6 615.2l1002.1 0.2c1.1-5.6 2.2-11.1 3.2-16.8H8.4c1 5.6 2 11.2 3.2 16.6z" fill="#05CEB9" p-id="6569"></path><path d="M15.2 632l994.6 0.2c1.4-5.5 2.6-11.1 3.8-16.8l-1002.1-0.2c1.2 5.6 2.5 11.2 3.7 16.8z" fill="#06CEBA" p-id="6570"></path><path d="M19.6 648.7l985.9 0.2c1.5-5.5 3-11.1 4.3-16.8l-994.6-0.2c1.4 5.7 2.9 11.3 4.4 16.8z" fill="#06CEBB" p-id="6571"></path><path d="M24.5 665.5l976.1 0.2c1.7-5.5 3.4-11.1 4.9-16.8l-985.9-0.2c1.6 5.7 3.2 11.2 4.9 16.8z" fill="#06CEBD" p-id="6572"></path><path d="M30.1 682.2l964.9 0.2c1.9-5.5 3.8-11.1 5.6-16.8l-976.1-0.2c1.8 5.7 3.6 11.3 5.6 16.8z" fill="#06CDBE" p-id="6573"></path><path d="M36.4 699l952.4 0.2c2.2-5.5 4.2-11.1 6.3-16.8l-964.9-0.2c1.9 5.7 4 11.3 6.2 16.8z" fill="#06CDBF" p-id="6574"></path><path d="M43.3 715.8l938.6 0.2c2.4-5.5 4.7-11.1 7-16.8L36.4 699c2.1 5.6 4.5 11.2 6.9 16.8z" fill="#06CDC0" p-id="6575"></path><path d="M50.9 732.4l923.3 0.2c2.6-5.5 5.1-11.1 7.7-16.8l-938.7-0.2c2.5 5.7 5.1 11.3 7.7 16.8z" fill="#06CCC1" p-id="6576"></path><path d="M59.3 749.2l906.5 0.2c2.9-5.5 5.7-11.1 8.3-16.8l-923.3-0.2c2.8 5.7 5.7 11.2 8.5 16.8z" fill="#07CCC2" p-id="6577"></path><path d="M68.5 765.9l888.1 0.2c3.2-5.5 6.3-11.1 9.1-16.8l-906.5-0.2c3.1 5.7 6.2 11.3 9.3 16.8z" fill="#07CCC3" p-id="6578"></path><path d="M78.5 782.7l868.1 0.2c3.4-5.5 6.7-11.1 10.1-16.8l-888.1-0.2c3.2 5.7 6.5 11.3 9.9 16.8z" fill="#07CBC4" p-id="6579"></path><path d="M89.5 799.4l846.2 0.2c3.8-5.5 7.4-11.1 11-16.8l-868.2-0.2c3.6 5.7 7.2 11.3 11 16.8z" fill="#07CBC5" p-id="6580"></path><path d="M101.4 816.1l822.5 0.2c4.1-5.5 8-11.1 11.9-16.8l-846.2-0.2c3.7 5.8 7.6 11.4 11.8 16.8z" fill="#07CBC6" p-id="6581"></path><path d="M114.3 832.9l796.5 0.1c4.5-5.5 8.8-11.1 12.9-16.8l-822.5-0.2c4.3 5.9 8.6 11.5 13.1 16.9z" fill="#07CBC7" p-id="6582"></path><path d="M128.3 849.6l768.3 0.1c4.8-5.5 9.5-11.1 14.2-16.8l-796.5-0.1c4.5 5.7 9.2 11.3 14 16.8z" fill="#07CAC8" p-id="6583"></path><path d="M143.7 866.4l737.6 0.1c5.3-5.5 10.4-11.1 15.4-16.8l-768.3-0.1c4.9 5.7 10.1 11.3 15.3 16.8z" fill="#08CAC9" p-id="6584"></path><path d="M160.6 883.1l703.9 0.1c5.7-5.5 11.4-11.1 16.9-16.8H143.7c5.5 5.7 11.1 11.3 16.9 16.7z" fill="#08CACA" p-id="6585"></path><path d="M179.1 899.9l666.8 0.1c6.3-5.5 12.4-11 18.5-16.8l-703.9-0.1c6.1 5.7 12.4 11.3 18.6 16.8z" fill="#08C9CB" p-id="6586"></path><path d="M199.6 916.5l625.8 0.1c7-5.4 13.8-11 20.6-16.8H179.1c6.7 5.8 13.5 11.4 20.5 16.7z" fill="#08C9CC" p-id="6587"></path><path d="M211.5 925.4l602.1 0.1c4-2.9 8-5.9 11.9-8.9l-625.8-0.1c3.8 3.1 7.8 6.1 11.8 8.9zM512.6 1023.6c112.5 0 216.6-36.3 301-97.9l-602.1-0.1c84.5 61.5 188.5 98 301.1 98z" fill="#08C9CC" p-id="6588"></path><path d="M307.4 599.7V414c0-26.4 21.4-47.8 47.8-47.8H617v-53.6c0-16.8-13.7-30.5-30.5-30.5H216.7c-16.8 0-30.5 13.7-30.5 30.5v217.8c0 16.8 13.7 30.5 30.5 30.5h33.8v56.2l56.9-17.4z" fill="#FFFFFF" p-id="6589"></path><path d="M818.3 393.5H355.2c-11.3 0-20.5 9.2-20.5 20.5v238.3c0 11.3 9.2 20.5 20.5 20.5h169.7L751.2 742v-69.2h67.1c11.3 0 20.5-9.2 20.5-20.5V414c0-11.3-9.2-20.5-20.5-20.5m-336 158c-15 0-27.2-12.2-27.2-27.2s12.2-27.2 27.2-27.2 27.2 12.2 27.2 27.2c0 15.1-12.2 27.2-27.2 27.2m105.8 0c-15 0-27.2-12.2-27.2-27.2s12.2-27.2 27.2-27.2 27.3 12.2 27.3 27.2c0 15.1-12.2 27.2-27.3 27.2m103 0c-15 0-27.2-12.2-27.2-27.2s12.2-27.2 27.2-27.2 27.2 12.2 27.2 27.2a27.1 27.1 0 0 1-27.2 27.2" fill="#FFFFFF" p-id="6590"></path><path d="M751.1 741.9V708.1H640.5zM640.5 708.1h110.6v-1.4H635.8z" fill="#FFFFFF" p-id="6591"></path><path d="M635.8 706.7h115.3v-1.5h-120z" fill="#FCFFFE" p-id="6592"></path><path d="M631.1 705.2h120v-1.4H626.4z" fill="#FAFFFE" p-id="6593"></path><path d="M626.4 703.8h124.7v-1.4H621.7z" fill="#F7FEFD" p-id="6594"></path><path d="M621.7 702.4h129.4v-1.5H617z" fill="#F4FEFD" p-id="6595"></path><path d="M617 700.9h134.1v-1.4H612.3z" fill="#F1FEFC" p-id="6596"></path><path d="M612.3 699.5h138.8v-1.4l-143.5-0.1z" fill="#EFFEFC" p-id="6597"></path><path d="M607.6 698l143.5 0.1v-1.5H602.9z" fill="#ECFEFB" p-id="6598"></path><path d="M602.9 696.6h148.2v-1.4H598.2z" fill="#E9FEFB" p-id="6599"></path><path d="M598.2 695.2h152.9v-1.4l-157.6-0.1z" fill="#E7FEFA" p-id="6600"></path><path d="M593.5 693.7l157.6 0.1v-1.5H588.8z" fill="#E4FDFA" p-id="6601"></path><path d="M588.8 692.3h162.3v-1.4h-167z" fill="#E1FDF9" p-id="6602"></path><path d="M584.1 690.9h167v-1.5H579.4z" fill="#DFFDF9" p-id="6603"></path><path d="M579.4 689.4h171.7V688H574.7z" fill="#DCFDF8" p-id="6604"></path><path d="M574.7 688h176.4v-1.4l-181.1-0.1z" fill="#D9FDF8" p-id="6605"></path><path d="M570 686.5l181.1 0.1v-1.5H565.3z" fill="#D7FDF7" p-id="6606"></path><path d="M565.3 685.1h185.8v-1.4H560.6z" fill="#D4FCF7" p-id="6607"></path><path d="M560.6 683.7h190.5v-1.4l-195.2-0.1z" fill="#D1FCF6" p-id="6608"></path><path d="M555.9 682.2l195.2 0.1v-1.5H551.2z" fill="#CFFCF6" p-id="6609"></path><path d="M551.2 680.8h199.9v-1.4H546.5z" fill="#CCFCF5" p-id="6610"></path><path d="M546.5 679.4h204.6V678l-209.3-0.1z" fill="#C9FCF5" p-id="6611"></path><path d="M541.8 677.9l209.3 0.1v-1.5h-214z" fill="#C7FCF4" p-id="6612"></path><path d="M537.1 676.5h214v-1.4l-218.7-0.1z" fill="#C4FBF4" p-id="6613"></path><path d="M532.4 675l218.7 0.1v-1.5H527.7z" fill="#C1FBF3" p-id="6614"></path><path d="M524.8 672.7l2.9 0.9h223.4v-0.9z" fill="#BFFBF3" p-id="6615"></path></svg>