<?xml version="1.0" standalone="no"?><!DOCTYPE svg PUBLIC "-//W3C//DTD SVG 1.1//EN" "http://www.w3.org/Graphics/SVG/1.1/DTD/svg11.dtd"><svg t="1648450186998" class="icon" viewBox="0 0 1050 1024" version="1.1" xmlns="http://www.w3.org/2000/svg" p-id="4157" xmlns:xlink="http://www.w3.org/1999/xlink" width="205.078125" height="200"><defs><style type="text/css">@font-face { font-family: feedback-iconfont; src: url("//at.alicdn.com/t/font_1031158_u69w8yhxdu.woff2?t=1630033759944") format("woff2"), url("//at.alicdn.com/t/font_1031158_u69w8yhxdu.woff?t=1630033759944") format("woff"), url("//at.alicdn.com/t/font_1031158_u69w8yhxdu.ttf?t=1630033759944") format("truetype"); }
</style></defs><path d="M38.145669 241.951226a19.069296 19.069296 0 0 0-19.069296 19.069296V978.763393a19.069296 19.069296 0 0 0 19.069296 19.069295h715.073169a19.069296 19.069296 0 0 0 19.069296-19.069295V261.020522a19.069296 19.069296 0 0 0-19.069296-19.069296H38.145669z" fill="#FFD866" p-id="4158"></path><path d="M753.2146 222.88193H38.141431a38.138592 38.138592 0 0 0-38.138592 38.138592v717.747108a38.138592 38.138592 0 0 0 38.138592 38.138592h715.073169a38.138592 38.138592 0 0 0 38.138592-38.138592V261.020522a38.138592 38.138592 0 0 0-38.138592-38.138592zM38.141431 261.020522h715.073169v717.747108H38.141431V261.020522z" fill="#D9A200" p-id="4159"></path><path d="M66.304662 124.840324a19.069296 19.069296 0 0 0-18.539593 14.611318L19.601838 256.558307A19.073533 19.073533 0 0 0 38.141431 280.08558h715.073169a19.065058 19.065058 0 0 0 18.539593-23.527273l-28.163231-117.106665a19.069296 19.069296 0 0 0-18.539593-14.611318H66.304662z" fill="#FFE9A8" p-id="4160"></path><path d="M725.059844 105.775265H66.300425a38.138592 38.138592 0 0 0-37.083425 29.222637L1.058007 252.104567A38.151305 38.151305 0 0 0 38.141431 299.159114h715.073169a38.151305 38.151305 0 0 0 37.083424-47.054547l-28.163231-117.110903a38.138592 38.138592 0 0 0-37.074949-29.218399zM38.141431 261.020522l28.158994-117.106665H725.059844l28.163232 117.106665H38.141431z" fill="#D9A200" p-id="4161"></path><path d="M67.334404 19.069296a19.069296 19.069296 0 0 0-19.069296 19.069296v105.771027c0 10.526251 8.538807 19.069296 19.069296 19.069296h656.687223c10.530489 0 19.069296-8.543045 19.069296-19.069296V38.138592a19.069296 19.069296 0 0 0-19.069296-19.069296H67.334404z" fill="#FFD866" p-id="4162"></path><path d="M724.021627 0H67.330166c-21.065216 0-38.138592 17.069139-38.138591 38.138592v105.775265a38.138592 38.138592 0 0 0 38.138591 38.138592h656.691461c21.069453 0 38.138592-17.073376 38.138592-38.138592V38.138592c0-21.065216-17.069139-38.138592-38.138592-38.138592zM67.330166 38.138592h656.691461v105.775265H67.330166V38.138592z" fill="#D9A200" p-id="4163"></path><path d="M351.310121 664.759892c0 187.574069 152.596743 340.166575 340.162337 340.166575 187.574069 0 340.170813-152.600981 340.170812-340.166575 0-90.858838-35.388376-176.285046-99.639189-240.531623-64.242339-64.246577-149.668547-99.626477-240.535861-99.626477-187.557119-0.004238-340.1581 152.592506-340.158099 340.1581z" fill="#D9F2FF" p-id="4164"></path><path d="M691.472458 305.532496c-48.47415 0-95.528697 9.504985-139.841503 28.243746-42.778787 18.098881-81.192824 43.994984-114.169993 76.972153-32.977169 32.977169-58.873273 71.391206-76.967916 114.174231-18.742999 44.304331-28.247984 91.358878-28.247984 139.833028 0 48.478388 9.504985 95.537172 28.247984 139.849978 18.094643 42.783025 43.990747 81.197062 76.967916 114.169993 32.981407 32.977169 71.395444 58.885986 114.169993 76.972154 44.312806 18.738761 91.367353 28.243746 139.841503 28.243746 48.482625 0 95.532935-9.504985 139.849978-28.243746 42.7915-18.094643 81.197062-43.990747 114.178469-76.972154 32.977169-32.972931 58.87751-71.391206 76.972153-114.169993 18.738761-44.312806 28.243746-91.371591 28.243746-139.849978 0-48.47415-9.504985-95.528697-28.247984-139.833028-18.094643-42.7915-43.990747-81.201299-76.972153-114.174231-32.977169-32.981407-71.395444-58.87751-114.174231-76.972153-44.317044-18.738761-91.367353-28.243746-139.849978-28.243746z m-321.093042 359.227396c0-177.335976 143.761303-321.088804 321.088804-321.088804 177.357164 0 321.105754 143.757065 321.105755 321.088804 0 177.352927-143.761303 321.097279-321.105755 321.097279-177.327501 0.004238-321.088804-143.74859-321.088804-321.097279z" fill="#00A0C6" p-id="4165"></path><path d="M691.476695 664.759892m-98.219586 0a98.219587 98.219587 0 1 0 196.439173 0 98.219587 98.219587 0 1 0-196.439173 0Z" fill="#FFFFFF" p-id="4166"></path><path d="M691.476695 779.929963c-63.504993 0-115.170072-51.660841-115.170071-115.170071s51.660841-115.174309 115.170071-115.17431 115.174309 51.665079 115.17431 115.17431-51.669317 115.170072-115.17431 115.170071z m0-196.439173c-44.808608 0-81.269101 36.460494-81.269101 81.273339 0 44.808608 36.460494 81.269101 81.269101 81.269102 44.812845 0 81.273339-36.460494 81.273339-81.269102 0-44.817083-36.460494-81.273339-81.273339-81.273339z" fill="#59C0D9" p-id="4167"></path></svg>